<?xml version="1.0" encoding="UTF-8" standalone="no"?>
<!DOCTYPE svg PUBLIC "-//W3C//DTD SVG 1.1//EN"
 "http://www.w3.org/Graphics/SVG/1.1/DTD/svg11.dtd">
<!-- Generated by graphviz version 12.1.1 (20240910.0053)
 -->
<!-- Title: INFRA Pages: 1 -->
<svg width="441pt" height="188pt"
 viewBox="0.00 0.00 441.24 188.00" xmlns="http://www.w3.org/2000/svg" xmlns:xlink="http://www.w3.org/1999/xlink">
<g id="graph0" class="graph" transform="scale(1 1) rotate(0) translate(4 184)">
<title>INFRA</title>
<polygon fill="white" stroke="none" points="-4,4 -4,-184 437.24,-184 437.24,4 -4,4"/>
<!-- pookietalk_db -->
<g id="node1" class="node">
<title>pookietalk_db</title>
<path fill="#ffcfb3" stroke="black" stroke-width="2" d="M138.95,-65.45C138.95,-69.07 107.99,-72 69.88,-72 31.76,-72 0.8,-69.07 0.8,-65.45 0.8,-65.45 0.8,-6.55 0.8,-6.55 0.8,-2.93 31.76,0 69.88,0 107.99,0 138.95,-2.93 138.95,-6.55 138.95,-6.55 138.95,-65.45 138.95,-65.45"/>
<path fill="none" stroke="black" stroke-width="2" d="M138.95,-65.45C138.95,-61.84 107.99,-58.91 69.88,-58.91 31.76,-58.91 0.8,-61.84 0.8,-65.45"/>
<text text-anchor="middle" x="69.88" y="-40.2" font-family="Arial" font-size="14.00">pookietalk_db</text>
<text text-anchor="middle" x="69.88" y="-23.4" font-family="Arial" font-size="14.00">(Docker::Container)</text>
</g>
<!-- pookietalk_backend -->
<g id="node2" class="node">
<title>pookietalk_backend</title>
<path fill="#b7e0ff" stroke="black" stroke-width="2" d="M127.76,-180C127.76,-180 12,-180 12,-180 6,-180 0,-174 0,-168 0,-168 0,-120 0,-120 0,-114 6,-108 12,-108 12,-108 127.76,-108 127.76,-108 133.76,-108 139.76,-114 139.76,-120 139.76,-120 139.76,-168 139.76,-168 139.76,-174 133.76,-180 127.76,-180"/>
<text text-anchor="middle" x="69.88" y="-148.2" font-family="Arial" font-size="14.00">pookietalk_backend</text>
<text text-anchor="middle" x="69.88" y="-131.4" font-family="Arial" font-size="14.00">(Docker::Container)</text>
</g>
<!-- pookietalk_backend&#45;&gt;pookietalk_db -->
<g id="edge1" class="edge">
<title>pookietalk_backend&#45;&gt;pookietalk_db</title>
<path fill="none" stroke="black" d="M69.88,-107.7C69.88,-99.93 69.88,-91.57 69.88,-83.43"/>
<polygon fill="black" stroke="black" points="73.38,-83.66 69.88,-73.66 66.38,-83.66 73.38,-83.66"/>
</g>
<!-- mysql_data -->
<g id="node3" class="node">
<title>mysql_data</title>
<path fill="#fff5cd" stroke="black" stroke-width="2" d="M282.34,-173.45C282.34,-177.07 254.34,-180 219.88,-180 185.42,-180 157.42,-177.07 157.42,-173.45 157.42,-173.45 157.42,-114.55 157.42,-114.55 157.42,-110.93 185.42,-108 219.88,-108 254.34,-108 282.34,-110.93 282.34,-114.55 282.34,-114.55 282.34,-173.45 282.34,-173.45"/>
<path fill="none" stroke="black" stroke-width="2" d="M282.34,-173.45C282.34,-169.84 254.34,-166.91 219.88,-166.91 185.42,-166.91 157.42,-169.84 157.42,-173.45"/>
<text text-anchor="middle" x="219.88" y="-148.2" font-family="Arial" font-size="14.00">mysql_data</text>
<text text-anchor="middle" x="219.88" y="-131.4" font-family="Arial" font-size="14.00">(Docker::Volume)</text>
</g>
<!-- pookietalk&#45;network -->
<g id="node4" class="node">
<title>pookietalk&#45;network</title>
<path fill="#e6e6e6" stroke="black" stroke-width="2" d="M421.24,-180C421.24,-180 312.52,-180 312.52,-180 306.52,-180 300.52,-174 300.52,-168 300.52,-168 300.52,-120 300.52,-120 300.52,-114 306.52,-108 312.52,-108 312.52,-108 421.24,-108 421.24,-108 427.24,-108 433.24,-114 433.24,-120 433.24,-120 433.24,-168 433.24,-168 433.24,-174 427.24,-180 421.24,-180"/>
<text text-anchor="middle" x="366.88" y="-148.2" font-family="Arial" font-size="14.00">pookietalk&#45;network</text>
<text text-anchor="middle" x="366.88" y="-131.4" font-family="Arial" font-size="14.00">(Docker::Network)</text>
</g>
</g>
</svg>
